Coordinates
version=1
nRows=17
nColumns=24
inDegrees=yes

Units are S.I. units (second, meters, Newtons, ...)
Angles are in degrees.

endheader
time	pelvis_tilt	pelvis_list	pelvis_rotation	pelvis_tx	pelvis_ty	pelvis_tz	hip_flexion_r	hip_adduction_r	hip_rotation_r	knee_angle_r	ankle_angle_r	subtalar_angle_r	mtp_angle_r	hip_flexion_l	hip_adduction_l	hip_rotation_l	knee_angle_l	ankle_angle_l	subtalar_angle_l	mtp_angle_l	lumbar_extension	lumbar_bending	lumbar_rotation
      3.46000000	     -7.71768373	     -2.94033819	      2.69326868	     -0.73655573	     -0.01680095	      0.71425356	      2.97239258	      4.09821770	      8.45849622	    -15.55659978	      9.81342881	     -6.62808166	      7.14566860	     40.57031752	     -4.23038509	     -3.82379806	    -55.60005410	     -7.87687242	     -1.98580674	     12.61896476	      3.80745272	      9.13241025	      0.95304717
      3.46500000	     -7.59841438	     -2.81085055	      2.52560160	     -0.72973004	     -0.01733700	      0.71427315	      2.15515888	      3.93679543	      8.54694787	    -15.08901137	     10.00259036	     -6.46085396	      6.92196238	     40.68005194	     -4.19907815	     -3.80868093	    -54.23738515	     -6.99109428	     -1.84265028	     10.24758710	      3.57329060	      8.95077663	      1.18120227
      3.47000000	     -7.65315171	     -2.68613722	      2.26411090	     -0.72291682	     -0.01809767	      0.71453028	      1.55262963	      3.78692821	      8.75522944	    -14.65774000	     10.15414938	     -6.36610485	      6.92992573	     40.91222925	     -4.24585682	     -3.81684705	    -52.70043607	     -6.78847717	     -1.84699557	      9.90015129	      3.51601495	      8.75523835	      1.49669646
      3.47500000	     -7.59902458	     -2.54746574	      2.08764983	     -0.71608755	     -0.01877165	      0.71469181	      0.81252801	      3.61328386	      8.88748790	    -14.19374411	     10.28629606	     -6.24753498	      6.88681550	     40.99109709	     -4.21935416	     -3.73682862	    -51.10713686	     -6.47841612	     -1.78373286	      9.23199404	      3.34952618	      8.53585619	      1.71704222
      3.48000000	     -7.58787148	     -2.41066832	      1.88727083	     -0.70922485	     -0.01954213	      0.71486376	      0.12915062	      3.43352463	      9.00494323	    -13.74910132	     10.44060076	     -6.08855264	      6.83842470	     41.08038868	     -4.20969877	     -3.67876172	    -49.47434009	     -6.10369717	     -1.71470716	      8.35997752	      3.23302025	      8.31539404	      1.95507838
      3.48500000	     -7.61311712	     -2.33740761	      1.76688246	     -0.70232878	     -0.02045626	      0.71487041	     -0.52155144	      3.30609257	      9.04576097	    -13.29930226	     10.61615233	     -5.85601170	      6.75052790	     41.21825789	     -4.18997485	     -3.50316569	    -47.87664754	     -5.41238281	     -1.49787870	      6.68306727	      3.17949805	      8.16073641	      2.06039161
      3.49000000	     -7.65006240	     -2.20495661	      1.53675019	     -0.69543982	     -0.02132598	      0.71511538	     -1.13563319	      3.12525389	      9.17807864	    -12.88084234	     10.71270556	     -5.71625816	      6.74471536	     41.27742779	     -4.21050334	     -3.45407501	    -46.11490754	     -5.19774576	     -1.48953270	      6.24485458	      3.11360444	      7.93708800	      2.36239865
      3.49500000	     -7.60804949	     -2.05496062	      1.35132250	     -0.68848729	     -0.02216676	      0.71529570	     -1.84981869	      2.91439750	      9.24358754	    -12.44409539	     10.84092190	     -5.48915552	      6.73621972	     41.21623873	     -4.18547942	     -3.37510106	    -44.32851369	     -4.81961883	     -1.42019811	      5.50723297	      2.97474450	      7.68339475	      2.58104238
      3.50000000	     -7.59993902	     -1.94715761	      1.24448284	     -0.68148449	     -0.02313801	      0.71524498	     -2.52997238	      2.72721306	      9.20506871	    -12.01234438	     10.99827314	     -5.13025369	      6.75418908	     41.20870703	     -4.12042692	     -3.19142625	    -42.62686341	     -3.92807254	     -1.17114622	      3.36792580	      2.89613369	      7.48473535	      2.66520979
      3.50500000	     -7.67873537	     -1.80437863	      0.96250852	     -0.67445724	     -0.02416774	      0.71554844	     -3.07532219	      2.51665898	      9.34847831	    -11.64350908	     11.09005080	     -4.91832100	      6.80411734	     41.21306662	     -4.17696113	     -3.22089858	    -40.78949268	     -3.58625675	     -1.12535950	      2.87436652	      2.89015445	      7.24130672	      3.02094759
      3.51000000	     -7.64292907	     -1.64364311	      0.89408939	     -0.66733322	     -0.02515141	      0.71542304	     -3.77634722	      2.25812635	      9.15154010	    -11.23137649	     11.20939108	     -4.47205761	      6.99559363	     41.11218606	     -4.02708995	     -3.02147808	    -39.05923460	     -2.53236572	     -0.85938454	      0.29721835	      2.79578283	      6.97340399	      3.08985563
      3.51500000	     -7.70875721	     -1.50100162	      0.56025985	     -0.66021113	     -0.02625731	      0.71578462	     -4.31296027	      2.03243076	      9.35789568	    -10.90924413	     11.32090302	     -4.16249262	      7.09110684	     41.05608800	     -4.13040414	     -3.12464311	    -37.24071889	     -2.06166884	     -0.66110130	     -0.10992794	      2.78713919	      6.72991344	      3.47386730
      3.52000000	     -7.71985206	     -1.29927691	      0.41684134	     -0.65296830	     -0.02734701	      0.71569276	     -4.92198536	      1.70966576	      9.16245992	    -10.57137189	     11.45049115	     -3.57051443	      7.53110433	     40.95821073	     -3.98627399	     -3.01184166	    -35.57704229	     -0.66652940	     -0.24239034	     -3.44295877	      2.75517813	      6.42504448	      3.61583288
      3.52500000	     -7.75553788	     -1.11605953	      0.14207162	     -0.64568067	     -0.02848504	      0.71597874	     -5.48498895	      1.43149843	      9.28003028	    -10.27748025	     11.54832959	     -3.23117545	      7.61971550	     40.83098796	     -4.00853620	     -3.11145598	    -33.80289234	     -0.17303330	      0.06756772	     -3.68003236	      2.74403018	      6.12468010	      3.92770605
      3.53000000	     -7.77277770	     -0.88622234	     -0.02390233	     -0.63835940	     -0.02963562	      0.71590047	     -6.03561956	      1.06732126	      9.00292944	    -10.02992445	     11.68222856	     -2.50039263	      8.27964091	     40.70092233	     -3.85087006	     -3.02840854	    -32.20169249	      1.15793690	      0.58171225	     -6.62330971	      2.72720466	      5.78407288	      4.09225698
      3.53500000	     -7.81515233	     -0.64923044	     -0.33159798	     -0.63097694	     -0.03078976	      0.71620010	     -6.53954218	      0.72086763	      9.14238981	     -9.83494214	     11.77732564	     -2.10561860	      8.37893106	     40.54347949	     -3.83505021	     -3.17616339	    -30.53712508	      1.65454037	      1.08076807	     -6.73371539	      2.73580669	      5.42586689	      4.43452893
      3.54000000	     -7.86310419	     -0.40214018	     -0.59850369	     -0.62346630	     -0.03200972	      0.71639237	     -7.02275864	      0.35288159	      9.11352977	     -9.67467507	     11.90862304	     -1.54875733	      8.60038525	     40.39407340	     -3.77285534	     -3.31649217	    -28.97965127	      2.21503882	      1.67709924	     -6.84013743	      2.77710018	      5.05656695	      4.72508786
